# xmcd
#
# Track frame offsets: 
#        150
#        18152
#        35945
#        52997
#        63757
#        82592
#        107792
#        133882
#        156955
#        166015
#        186230
#        206040
#        234332
#
# Disc length: 3379 seconds
#
# Revision: 4
# Processed by: cddbd v1.5.2PL0 Copyright (c) Steve Scherf et al.
# Submitted via: ExactAudioCopy v0.99pb5
#
DISCID=a30d310d
DTITLE=Roy Rogers - Slideways
DYEAR=2002
DGENRE=Blues
TTITLE0=Avalanche
TTITLE1=Smoke And Mirrors
TTITLE2=Razor's Edge
TTITLE3=Duckwalk
TTITLE4=I'm With You
TTITLE5=Talking Walls
TTITLE6=Crescent Steps
TTITLE7=No Destination
TTITLE8=Swamp Dream
TTITLE9=There Is Only You
TTITLE10=Precious Moments
TTITLE11=Gumbo Funk
TTITLE12=For The Children
EXTD=Evidence Records 26121\n© 2002\n\nRemarks: All tracks are instrum
EXTD=entals featuring Rogers'\nslide guitar virtuosity YEAR: 2002
EXTT0=
EXTT1=
EXTT2=
EXTT3=
EXTT4=
EXTT5=
EXTT6=
EXTT7=
EXTT8=
EXTT9=
EXTT10=
EXTT11=
EXTT12=
PLAYORDER=
